<mxfile host="app.diagrams.net" agent="Mozilla/5.0 (Windows NT 10.0; Win64; x64) AppleWebKit/537.36 (KHTML, like Gecko) Chrome/130.0.0.0 Safari/537.36" version="24.8.4">
  <diagram name="Sayfa -1" id="Sr6ukyjuV2lApumVN_ek">
    <mxGraphModel dx="637" dy="365" grid="1" gridSize="10" guides="1" tooltips="1" connect="1" arrows="1" fold="1" page="1" pageScale="1" pageWidth="1654" pageHeight="2336" math="0" shadow="0">
      <root>
        <mxCell id="0" />
        <mxCell id="1" parent="0" />
        <mxCell id="SIx_QNwcxITsG73D48pA-13" value="" style="html=1;points=[[0,0,0,0,5],[0,1,0,0,-5],[1,0,0,0,5],[1,1,0,0,-5]];perimeter=orthogonalPerimeter;outlineConnect=0;targetShapes=umlLifeline;portConstraint=eastwest;newEdgeStyle={&quot;curved&quot;:0,&quot;rounded&quot;:0};labelBackgroundColor=none;" vertex="1" parent="1">
          <mxGeometry x="485" y="324.5" width="10" height="545.5" as="geometry" />
        </mxCell>
        <mxCell id="SIx_QNwcxITsG73D48pA-1" value="Advisor" style="shape=umlActor;verticalLabelPosition=bottom;verticalAlign=top;html=1;outlineConnect=0;" vertex="1" parent="1">
          <mxGeometry x="203" y="150" width="30" height="60" as="geometry" />
        </mxCell>
        <mxCell id="SIx_QNwcxITsG73D48pA-2" value="System" style="rounded=0;whiteSpace=wrap;html=1;" vertex="1" parent="1">
          <mxGeometry x="440" y="155" width="100" height="50" as="geometry" />
        </mxCell>
        <mxCell id="SIx_QNwcxITsG73D48pA-3" value="" style="html=1;points=[[0,0,0,0,5],[0,1,0,0,-5],[1,0,0,0,5],[1,1,0,0,-5]];perimeter=orthogonalPerimeter;outlineConnect=0;targetShapes=umlLifeline;portConstraint=eastwest;newEdgeStyle={&quot;curved&quot;:0,&quot;rounded&quot;:0};labelBackgroundColor=none;" vertex="1" parent="1">
          <mxGeometry x="213" y="324.5" width="10" height="205.5" as="geometry" />
        </mxCell>
        <mxCell id="SIx_QNwcxITsG73D48pA-4" value="login(personID, password)" style="html=1;verticalAlign=bottom;startArrow=oval;endArrow=block;startSize=8;curved=0;rounded=0;labelBackgroundColor=none;fontColor=default;" edge="1" parent="1" source="SIx_QNwcxITsG73D48pA-3">
          <mxGeometry relative="1" as="geometry">
            <mxPoint x="220" y="352" as="sourcePoint" />
            <mxPoint x="485" y="352" as="targetPoint" />
          </mxGeometry>
        </mxCell>
        <mxCell id="SIx_QNwcxITsG73D48pA-5" value="alt" style="shape=umlFrame;whiteSpace=wrap;html=1;pointerEvents=0;labelBackgroundColor=none;" vertex="1" parent="1">
          <mxGeometry x="186" y="360" width="354" height="160" as="geometry" />
        </mxCell>
        <mxCell id="SIx_QNwcxITsG73D48pA-7" value="loginInfo == true" style="text;html=1;align=center;verticalAlign=middle;resizable=0;points=[];autosize=1;strokeColor=none;fillColor=none;labelBackgroundColor=none;" vertex="1" parent="1">
          <mxGeometry x="240" y="360" width="105" height="26" as="geometry" />
        </mxCell>
        <mxCell id="SIx_QNwcxITsG73D48pA-11" value="&lt;font style=&quot;font-size: 12px;&quot;&gt;print succesful message&lt;/font&gt;" style="html=1;verticalAlign=bottom;endArrow=open;dashed=1;endSize=8;curved=0;rounded=0;labelBackgroundColor=none;fontColor=default;" edge="1" parent="1">
          <mxGeometry relative="1" as="geometry">
            <mxPoint x="485" y="410" as="sourcePoint" />
            <mxPoint x="223" y="410" as="targetPoint" />
          </mxGeometry>
        </mxCell>
        <mxCell id="SIx_QNwcxITsG73D48pA-12" value="&lt;font style=&quot;font-size: 12px;&quot;&gt;Entry the system&lt;/font&gt;" style="html=1;verticalAlign=bottom;startArrow=oval;startFill=1;endArrow=block;startSize=8;curved=0;rounded=0;labelBackgroundColor=none;fontColor=default;entryX=-0.071;entryY=0.693;entryDx=0;entryDy=0;entryPerimeter=0;" edge="1" parent="1">
          <mxGeometry width="60" relative="1" as="geometry">
            <mxPoint x="223" y="439.7259999999999" as="sourcePoint" />
            <mxPoint x="484.2900000000001" y="439.7259999999999" as="targetPoint" />
            <mxPoint as="offset" />
          </mxGeometry>
        </mxCell>
        <mxCell id="SIx_QNwcxITsG73D48pA-15" value="" style="endArrow=none;dashed=1;html=1;dashPattern=1 3;strokeWidth=2;rounded=0;fontSize=12;startSize=8;endSize=8;curved=1;" edge="1" parent="1" target="SIx_QNwcxITsG73D48pA-1">
          <mxGeometry width="50" height="50" relative="1" as="geometry">
            <mxPoint x="217.57" y="324.5" as="sourcePoint" />
            <mxPoint x="217.57" y="254.5" as="targetPoint" />
          </mxGeometry>
        </mxCell>
        <mxCell id="SIx_QNwcxITsG73D48pA-16" value="" style="endArrow=none;dashed=1;html=1;dashPattern=1 3;strokeWidth=2;rounded=0;fontSize=12;startSize=8;endSize=8;curved=1;entryX=0.5;entryY=1;entryDx=0;entryDy=0;" edge="1" parent="1" target="SIx_QNwcxITsG73D48pA-2">
          <mxGeometry width="50" height="50" relative="1" as="geometry">
            <mxPoint x="489.34999999999997" y="324.5" as="sourcePoint" />
            <mxPoint x="490" y="210" as="targetPoint" />
          </mxGeometry>
        </mxCell>
        <mxCell id="SIx_QNwcxITsG73D48pA-17" value="" style="html=1;points=[[0,0,0,0,5],[0,1,0,0,-5],[1,0,0,0,5],[1,1,0,0,-5]];perimeter=orthogonalPerimeter;outlineConnect=0;targetShapes=umlLifeline;portConstraint=eastwest;newEdgeStyle={&quot;curved&quot;:0,&quot;rounded&quot;:0};labelBackgroundColor=none;" vertex="1" parent="1">
          <mxGeometry x="213" y="565" width="10" height="40" as="geometry" />
        </mxCell>
        <mxCell id="SIx_QNwcxITsG73D48pA-18" value="" style="endArrow=none;dashed=1;html=1;dashPattern=1 3;strokeWidth=2;rounded=0;fontSize=12;startSize=8;endSize=8;curved=1;" edge="1" parent="1">
          <mxGeometry width="50" height="50" relative="1" as="geometry">
            <mxPoint x="217.64" y="563" as="sourcePoint" />
            <mxPoint x="218" y="530" as="targetPoint" />
          </mxGeometry>
        </mxCell>
        <mxCell id="SIx_QNwcxITsG73D48pA-19" value="viewAwaitingStudents()" style="html=1;verticalAlign=bottom;startArrow=oval;endArrow=block;startSize=8;curved=0;rounded=0;labelBackgroundColor=none;fontColor=default;entryX=0;entryY=0;entryDx=0;entryDy=5;entryPerimeter=0;" edge="1" parent="1" source="SIx_QNwcxITsG73D48pA-13" target="SIx_QNwcxITsG73D48pA-52">
          <mxGeometry relative="1" as="geometry">
            <mxPoint x="510" y="570" as="sourcePoint" />
            <mxPoint x="485" y="570" as="targetPoint" />
          </mxGeometry>
        </mxCell>
        <mxCell id="SIx_QNwcxITsG73D48pA-20" value="&lt;font style=&quot;font-size: 12px;&quot;&gt;print awaiting students&lt;/font&gt;" style="html=1;verticalAlign=bottom;endArrow=open;dashed=1;endSize=8;curved=0;rounded=0;labelBackgroundColor=none;fontColor=default;exitX=0;exitY=1;exitDx=0;exitDy=-5;exitPerimeter=0;" edge="1" parent="1" source="SIx_QNwcxITsG73D48pA-52">
          <mxGeometry relative="1" as="geometry">
            <mxPoint x="485" y="600" as="sourcePoint" />
            <mxPoint x="223" y="600" as="targetPoint" />
          </mxGeometry>
        </mxCell>
        <mxCell id="SIx_QNwcxITsG73D48pA-21" value="" style="endArrow=none;dashed=1;html=1;dashPattern=1 3;strokeWidth=2;rounded=0;fontSize=12;startSize=8;endSize=8;curved=1;" edge="1" parent="1">
          <mxGeometry width="50" height="50" relative="1" as="geometry">
            <mxPoint x="218" y="640" as="sourcePoint" />
            <mxPoint x="218.07" y="605" as="targetPoint" />
          </mxGeometry>
        </mxCell>
        <mxCell id="SIx_QNwcxITsG73D48pA-22" value="" style="html=1;points=[[0,0,0,0,5],[0,1,0,0,-5],[1,0,0,0,5],[1,1,0,0,-5]];perimeter=orthogonalPerimeter;outlineConnect=0;targetShapes=umlLifeline;portConstraint=eastwest;newEdgeStyle={&quot;curved&quot;:0,&quot;rounded&quot;:0};labelBackgroundColor=none;" vertex="1" parent="1">
          <mxGeometry x="213" y="640" width="10" height="40" as="geometry" />
        </mxCell>
        <mxCell id="SIx_QNwcxITsG73D48pA-23" value="viewStudent()" style="html=1;verticalAlign=bottom;startArrow=oval;endArrow=block;startSize=8;curved=0;rounded=0;labelBackgroundColor=none;fontColor=default;entryX=0;entryY=0;entryDx=0;entryDy=5;entryPerimeter=0;" edge="1" parent="1">
          <mxGeometry relative="1" as="geometry">
            <mxPoint x="495" y="650" as="sourcePoint" />
            <mxPoint x="925" y="650" as="targetPoint" />
          </mxGeometry>
        </mxCell>
        <mxCell id="SIx_QNwcxITsG73D48pA-24" value="&lt;font style=&quot;font-size: 12px;&quot;&gt;displayStudent()&lt;/font&gt;" style="html=1;verticalAlign=bottom;endArrow=open;dashed=1;endSize=8;curved=0;rounded=0;labelBackgroundColor=none;fontColor=default;" edge="1" parent="1">
          <mxGeometry relative="1" as="geometry">
            <mxPoint x="931.6" y="670" as="sourcePoint" />
            <mxPoint x="223" y="670" as="targetPoint" />
          </mxGeometry>
        </mxCell>
        <mxCell id="SIx_QNwcxITsG73D48pA-25" value="" style="endArrow=none;dashed=1;html=1;dashPattern=1 3;strokeWidth=2;rounded=0;fontSize=12;startSize=8;endSize=8;curved=1;" edge="1" parent="1">
          <mxGeometry width="50" height="50" relative="1" as="geometry">
            <mxPoint x="217.64" y="715" as="sourcePoint" />
            <mxPoint x="217.70999999999998" y="680" as="targetPoint" />
          </mxGeometry>
        </mxCell>
        <mxCell id="SIx_QNwcxITsG73D48pA-30" value="" style="html=1;points=[[0,0,0,0,5],[0,1,0,0,-5],[1,0,0,0,5],[1,1,0,0,-5]];perimeter=orthogonalPerimeter;outlineConnect=0;targetShapes=umlLifeline;portConstraint=eastwest;newEdgeStyle={&quot;curved&quot;:0,&quot;rounded&quot;:0};labelBackgroundColor=none;" vertex="1" parent="1">
          <mxGeometry x="213" y="721.5" width="10" height="148.5" as="geometry" />
        </mxCell>
        <mxCell id="SIx_QNwcxITsG73D48pA-29" value="alt" style="shape=umlFrame;whiteSpace=wrap;html=1;pointerEvents=0;labelBackgroundColor=none;" vertex="1" parent="1">
          <mxGeometry x="189" y="700" width="601" height="160.75" as="geometry" />
        </mxCell>
        <mxCell id="SIx_QNwcxITsG73D48pA-31" value="&lt;font style=&quot;font-size: 11px;&quot;&gt;approveCourses(student: Student, advisor: Advisor): void&lt;/font&gt;" style="text;html=1;align=center;verticalAlign=middle;resizable=0;points=[];autosize=1;strokeColor=none;fillColor=none;labelBackgroundColor=none;" vertex="1" parent="1">
          <mxGeometry x="238.5" y="710" width="300" height="30" as="geometry" />
        </mxCell>
        <mxCell id="SIx_QNwcxITsG73D48pA-34" value="loop" style="shape=umlFrame;whiteSpace=wrap;html=1;pointerEvents=0;labelBackgroundColor=none;" vertex="1" parent="1">
          <mxGeometry x="149.5" y="310" width="427" height="241" as="geometry" />
        </mxCell>
        <mxCell id="SIx_QNwcxITsG73D48pA-37" value="" style="line;strokeWidth=1;fillColor=none;align=left;verticalAlign=middle;spacingTop=-1;spacingLeft=3;spacingRight=3;rotatable=0;labelPosition=right;points=[];portConstraint=eastwest;dashed=1;labelBackgroundColor=none;" vertex="1" parent="1">
          <mxGeometry x="187.5" y="448" width="351" height="8" as="geometry" />
        </mxCell>
        <mxCell id="SIx_QNwcxITsG73D48pA-39" value="loginInfo == true" style="text;html=1;align=center;verticalAlign=middle;resizable=0;points=[];autosize=1;strokeColor=none;fillColor=none;labelBackgroundColor=none;" vertex="1" parent="1">
          <mxGeometry x="240" y="456" width="105" height="26" as="geometry" />
        </mxCell>
        <mxCell id="SIx_QNwcxITsG73D48pA-40" value="&lt;font style=&quot;font-size: 12px;&quot;&gt;print error message&lt;/font&gt;" style="html=1;verticalAlign=bottom;endArrow=open;dashed=1;endSize=8;curved=0;rounded=0;labelBackgroundColor=none;fontColor=default;" edge="1" parent="1">
          <mxGeometry relative="1" as="geometry">
            <mxPoint x="485" y="500" as="sourcePoint" />
            <mxPoint x="223" y="500" as="targetPoint" />
          </mxGeometry>
        </mxCell>
        <mxCell id="SIx_QNwcxITsG73D48pA-41" value="" style="line;strokeWidth=1;fillColor=none;align=left;verticalAlign=middle;spacingTop=-1;spacingLeft=3;spacingRight=3;rotatable=0;labelPosition=right;points=[];portConstraint=eastwest;dashed=1;labelBackgroundColor=none;" vertex="1" parent="1">
          <mxGeometry x="190.5" y="776.38" width="599.5" height="8" as="geometry" />
        </mxCell>
        <mxCell id="SIx_QNwcxITsG73D48pA-43" value="&lt;font style=&quot;font-size: 11px;&quot;&gt;disapproveCourses(student: Student, advisor: Advisor): void&lt;/font&gt;" style="text;html=1;align=center;verticalAlign=middle;resizable=0;points=[];autosize=1;strokeColor=none;fillColor=none;labelBackgroundColor=none;" vertex="1" parent="1">
          <mxGeometry x="221.5" y="784.38" width="320" height="30" as="geometry" />
        </mxCell>
        <mxCell id="SIx_QNwcxITsG73D48pA-47" value="" style="endArrow=none;dashed=1;html=1;dashPattern=1 3;strokeWidth=2;rounded=0;fontSize=12;startSize=8;endSize=8;curved=1;" edge="1" parent="1">
          <mxGeometry width="50" height="50" relative="1" as="geometry">
            <mxPoint x="217.72" y="905" as="sourcePoint" />
            <mxPoint x="217.79" y="870" as="targetPoint" />
          </mxGeometry>
        </mxCell>
        <mxCell id="SIx_QNwcxITsG73D48pA-48" value="" style="endArrow=none;dashed=1;html=1;dashPattern=1 3;strokeWidth=2;rounded=0;fontSize=12;startSize=8;endSize=8;curved=1;" edge="1" parent="1">
          <mxGeometry width="50" height="50" relative="1" as="geometry">
            <mxPoint x="489.72" y="905" as="sourcePoint" />
            <mxPoint x="489.78999999999996" y="870" as="targetPoint" />
          </mxGeometry>
        </mxCell>
        <mxCell id="SIx_QNwcxITsG73D48pA-50" value="Advisor" style="rounded=0;whiteSpace=wrap;html=1;" vertex="1" parent="1">
          <mxGeometry x="710" y="155" width="100" height="50" as="geometry" />
        </mxCell>
        <mxCell id="SIx_QNwcxITsG73D48pA-51" value="" style="endArrow=none;dashed=1;html=1;dashPattern=1 3;strokeWidth=2;rounded=0;fontSize=12;startSize=8;endSize=8;curved=1;entryX=0.5;entryY=1;entryDx=0;entryDy=0;" edge="1" parent="1" source="SIx_QNwcxITsG73D48pA-52">
          <mxGeometry width="50" height="50" relative="1" as="geometry">
            <mxPoint x="760" y="800" as="sourcePoint" />
            <mxPoint x="760.25" y="205" as="targetPoint" />
          </mxGeometry>
        </mxCell>
        <mxCell id="SIx_QNwcxITsG73D48pA-52" value="" style="html=1;points=[[0,0,0,0,5],[0,1,0,0,-5],[1,0,0,0,5],[1,1,0,0,-5]];perimeter=orthogonalPerimeter;outlineConnect=0;targetShapes=umlLifeline;portConstraint=eastwest;newEdgeStyle={&quot;curved&quot;:0,&quot;rounded&quot;:0};labelBackgroundColor=none;" vertex="1" parent="1">
          <mxGeometry x="755" y="565" width="10" height="40" as="geometry" />
        </mxCell>
        <mxCell id="SIx_QNwcxITsG73D48pA-54" value="Student" style="rounded=0;whiteSpace=wrap;html=1;" vertex="1" parent="1">
          <mxGeometry x="880" y="155" width="100" height="50" as="geometry" />
        </mxCell>
        <mxCell id="SIx_QNwcxITsG73D48pA-55" value="" style="endArrow=none;dashed=1;html=1;dashPattern=1 3;strokeWidth=2;rounded=0;fontSize=12;startSize=8;endSize=8;curved=1;entryX=0.5;entryY=1;entryDx=0;entryDy=0;" edge="1" parent="1" source="SIx_QNwcxITsG73D48pA-56">
          <mxGeometry width="50" height="50" relative="1" as="geometry">
            <mxPoint x="930" y="810.8" as="sourcePoint" />
            <mxPoint x="929.85" y="200" as="targetPoint" />
          </mxGeometry>
        </mxCell>
        <mxCell id="SIx_QNwcxITsG73D48pA-57" value="" style="endArrow=none;dashed=1;html=1;dashPattern=1 3;strokeWidth=2;rounded=0;fontSize=12;startSize=8;endSize=8;curved=1;entryX=0.5;entryY=1;entryDx=0;entryDy=0;" edge="1" parent="1" target="SIx_QNwcxITsG73D48pA-56">
          <mxGeometry width="50" height="50" relative="1" as="geometry">
            <mxPoint x="930" y="900" as="sourcePoint" />
            <mxPoint x="929.85" y="200" as="targetPoint" />
          </mxGeometry>
        </mxCell>
        <mxCell id="SIx_QNwcxITsG73D48pA-56" value="" style="html=1;points=[[0,0,0,0,5],[0,1,0,0,-5],[1,0,0,0,5],[1,1,0,0,-5]];perimeter=orthogonalPerimeter;outlineConnect=0;targetShapes=umlLifeline;portConstraint=eastwest;newEdgeStyle={&quot;curved&quot;:0,&quot;rounded&quot;:0};labelBackgroundColor=none;" vertex="1" parent="1">
          <mxGeometry x="925" y="640" width="10" height="40" as="geometry" />
        </mxCell>
        <mxCell id="SIx_QNwcxITsG73D48pA-59" value="&lt;font style=&quot;font-size: 12px;&quot;&gt;print approval message&lt;/font&gt;" style="html=1;verticalAlign=bottom;endArrow=open;dashed=1;endSize=8;curved=0;rounded=0;labelBackgroundColor=none;fontColor=default;exitX=0;exitY=1;exitDx=0;exitDy=-5;exitPerimeter=0;" edge="1" parent="1">
          <mxGeometry relative="1" as="geometry">
            <mxPoint x="756" y="760" as="sourcePoint" />
            <mxPoint x="224" y="760" as="targetPoint" />
          </mxGeometry>
        </mxCell>
        <mxCell id="SIx_QNwcxITsG73D48pA-61" value="&lt;font style=&quot;font-size: 12px;&quot;&gt;print approval message&lt;/font&gt;" style="html=1;verticalAlign=bottom;endArrow=open;dashed=1;endSize=8;curved=0;rounded=0;labelBackgroundColor=none;fontColor=default;exitX=0;exitY=1;exitDx=0;exitDy=-5;exitPerimeter=0;" edge="1" parent="1">
          <mxGeometry relative="1" as="geometry">
            <mxPoint x="756" y="830" as="sourcePoint" />
            <mxPoint x="224" y="830" as="targetPoint" />
          </mxGeometry>
        </mxCell>
        <mxCell id="SIx_QNwcxITsG73D48pA-62" value="" style="endArrow=none;dashed=1;html=1;dashPattern=1 3;strokeWidth=2;rounded=0;fontSize=12;startSize=8;endSize=8;curved=1;entryX=0.5;entryY=1;entryDx=0;entryDy=0;" edge="1" parent="1" source="SIx_QNwcxITsG73D48pA-63">
          <mxGeometry width="50" height="50" relative="1" as="geometry">
            <mxPoint x="760" y="965" as="sourcePoint" />
            <mxPoint x="760.25" y="605" as="targetPoint" />
          </mxGeometry>
        </mxCell>
        <mxCell id="SIx_QNwcxITsG73D48pA-64" value="" style="endArrow=none;dashed=1;html=1;dashPattern=1 3;strokeWidth=2;rounded=0;fontSize=12;startSize=8;endSize=8;curved=1;entryX=0.5;entryY=1;entryDx=0;entryDy=0;" edge="1" parent="1" target="SIx_QNwcxITsG73D48pA-63">
          <mxGeometry width="50" height="50" relative="1" as="geometry">
            <mxPoint x="760" y="900" as="sourcePoint" />
            <mxPoint x="760.25" y="605" as="targetPoint" />
          </mxGeometry>
        </mxCell>
        <mxCell id="SIx_QNwcxITsG73D48pA-63" value="" style="html=1;points=[[0,0,0,0,5],[0,1,0,0,-5],[1,0,0,0,5],[1,1,0,0,-5]];perimeter=orthogonalPerimeter;outlineConnect=0;targetShapes=umlLifeline;portConstraint=eastwest;newEdgeStyle={&quot;curved&quot;:0,&quot;rounded&quot;:0};labelBackgroundColor=none;" vertex="1" parent="1">
          <mxGeometry x="755" y="744.38" width="10" height="95.62" as="geometry" />
        </mxCell>
        <mxCell id="SIx_QNwcxITsG73D48pA-67" value="request students waiting for approval" style="html=1;verticalAlign=bottom;startArrow=oval;endArrow=block;startSize=8;curved=0;rounded=0;labelBackgroundColor=none;fontColor=default;entryX=0;entryY=0;entryDx=0;entryDy=5;entryPerimeter=0;" edge="1" parent="1">
          <mxGeometry relative="1" as="geometry">
            <mxPoint x="225" y="570" as="sourcePoint" />
            <mxPoint x="485" y="570" as="targetPoint" />
          </mxGeometry>
        </mxCell>
        <mxCell id="SIx_QNwcxITsG73D48pA-69" value="select a student" style="html=1;verticalAlign=bottom;startArrow=oval;endArrow=block;startSize=8;curved=0;rounded=0;labelBackgroundColor=none;fontColor=default;entryX=-0.156;entryY=0.599;entryDx=0;entryDy=0;entryPerimeter=0;" edge="1" parent="1" source="SIx_QNwcxITsG73D48pA-22" target="SIx_QNwcxITsG73D48pA-13">
          <mxGeometry relative="1" as="geometry">
            <mxPoint x="233" y="650" as="sourcePoint" />
            <mxPoint x="483" y="650" as="targetPoint" />
          </mxGeometry>
        </mxCell>
      </root>
    </mxGraphModel>
  </diagram>
</mxfile>
